<?xml version="1.0" encoding="utf-8"?>
<!-- Generator: Adobe Illustrator 18.1.1, SVG Export Plug-In . SVG Version: 6.00 Build 0)  -->
<svg version="1.1" id="Layer_1" xmlns="http://www.w3.org/2000/svg" xmlns:xlink="http://www.w3.org/1999/xlink" x="0px" y="0px"
	 viewBox="0 0 377 158.9" enable-background="new 0 0 377 158.9" xml:space="preserve">
<path fill="#FF8710" d="M371.3,45.7c-5.8-3.3-10.9,4.1-11.1,4.4c-6.2,8.7-10.9,9.1-15.9,9.3c-0.2,0-0.4-0.2-0.4-0.4
	c0.2-12.5-3.5-26.8-14.5-29.5c-11.4-2.8-16.8,4.7-18.8,5.4c-2,0.7-6.5-0.7-13.1,9.6c-1.8,2.8-5.8,8.5-11.2,15.6c0,0,0,0.1-0.1,0.1
	c-6.6,7.4-12.5,13.4-22.9,22.2c-0.9,0.8-2.2-0.2-1.8-1.3c2.3-5.9,6.3-15.9,10.5-24c3.4-6.6,3.6-8.3,2.7-10.1c-0.3-0.6-0.8-2-0.9-2.7
	c-0.3-3.6-1-13.1-8.1-14.9c-15.3-3.9-28.4,3.8-34.5,10c-8.5,8.8-14.6,18.1-19.2,28.8c-4.7,10.9-16.9,18.1-20.1,16.4
	c-4.1-2.2,11.5-28,13.2-40.1c1.6-11.6-6-16.2-12.8-16c-13.3,0.5-20.8,7.3-26.3,13.6c-1,1.1-2.2,0.7-1.8-0.7l1.6-4.4c0,0,0,0,0,0
	c0.5-2.3,0.4-7.2-3.6-8.2c-3.2-0.8-7.2-0.1-8.9,3.4c0,0-10.1,23.6-16.3,33.4c-3.4,5.3-18.2,21-21.8,18.1c-1-0.8-1.3-6.2,1.8-12.7
	c0.3-0.6,9.2-19.1,9.6-20.8c0.5-2.1-0.1-3.4-0.8-4.2c-0.6-0.7-0.8-3.7-1-5.1c-0.8-5.5-7.2-14.8-23.3-12.1c-4.4,0.7-18.3,4-36.2,29.6
	c-5.9,8.5-24.7,26.9-36.5,24.5c-3.6-0.7-5.9-2.7-4.2-8.2c2.8-8.7,13-29.1,15.3-33.7c0.3-0.6,0.9-1,1.6-1c3.7,0,18.5,0.3,20,0.2
	c3.9-0.4,6.8-3.3,6.8-6.8s-3-6.4-6.9-6.5c-2.4,0-13.2,0-14.3,0c-0.3,0-0.4-0.3-0.3-0.5c1.6-4.1,7.8-15,7.8-16.8
	c0.8-2.9-0.2-6.2-3.3-7.6s-8.1-0.9-9.8,2.3L30.4,26c-0.2,0.5-0.7,0.8-1.3,0.8c-3.6,0.1-17.1-0.1-22.5,0.4c-0.5,0-6,0.7-6.3,6.2
	c0,0.1,0,0.2,0,0.3c0.1,0.8,0.6,4.4,3.8,5.4c1.5,0.5,16.4,0.8,18.7,0.9c0.3,0,0.5,0.3,0.4,0.6C20.5,46.9,8.8,71.7,7.2,78
	C3.1,94.6,18.2,99.1,27,98.7c13.2-0.6,24.7-9.7,28-11.5c0.5-0.3,1.2-0.2,1.4,0.3c1.2,3.6,5.9,11.7,17.6,11.5
	c17.9-0.4,24.8-12.1,26.5-12.7c0.3-0.1,0.6,0.1,0.8,0.4c0.9,2,2.4,13.1,15.2,12.1c4.9-0.4,8.5-4.3,10.5-5.8c0.9-0.8,2.3-0.2,2.5,1
	c0.2,1.8,1.1,3.5,3.7,4.5c3.1,1.2,8.1,0.7,9.5-2c9.8-18.9,41.3-56.2,46.1-51.7c4,3.7-12.8,30.7-13.5,43.4c-0.2,4.1,2.2,8.2,7.6,10
	c12.8,4.3,24.8-5.5,26.8-6.5c0.2-0.1,0.6-0.2,0.7,0.1c4.3,6.4,14,8.4,20.1,6.9c7.8-1.9,13.2-7.2,14.9-8.3c0.4-0.2,0.6,0,0.6,0.4
	c-0.4,3.5-0.5,6.4-1.3,7c-8.1,6.7-25.3,17.9-30.7,32.7c-10.2,27.8,29.1,38.6,37.4,13.2c2.9-9,5.1-33.5,5.6-37.8
	c0.1-0.5,0.3-0.9,0.7-1.2C281.3,84.8,285.8,79,285.8,79c0.2-0.3,0.7-0.2,0.8,0.2c0.3,2.5,3.9,16.4,15.8,19
	c11.1,2.4,24.9-0.5,33.8-12.7c3.3-4.5,4.9-10.1,5.4-12.1c0.1-0.4,0.5-0.7,0.9-0.7c3.2-0.1,15.8-1.2,25.3-8.9
	C372,60.4,381.3,51.4,371.3,45.7z M99.3,70.2C87,83,75.4,86.7,71.5,83.6c-2.6-2.1-0.3-11.3,11.9-25.3c13.3-15.3,19.2-15.4,21.9-15.5
	C114.7,42.6,111.6,57.4,99.3,70.2z M238.3,137.2c-1.7,6.6-9,7.1-10.4,2.2c-1.8-6.1,7.3-16.5,12.1-21.4c0.7-0.8,2-0.1,1.9,0.9
	C241.2,123.2,239.9,130.9,238.3,137.2z M254.4,62.4c-7.2,12.3-24.9,25.4-29.5,21.5c-3.7-3.1,1.6-16.4,9.5-26.3
	c12.4-15.5,20.1-16,23-14.7C260.4,44.3,261.3,50.5,254.4,62.4z M307.1,84.3c-7.6-2.2-10.8-15.4,0.4-29.2c0.2-0.3,0.7-0.2,0.8,0.2
	c4.4,13.8,15.5,16.3,18.6,16.7c0.3,0,0.5,0.3,0.5,0.7C326.8,75.9,319.4,87.9,307.1,84.3z M331,58.5c0,0.2-0.2,0.4-0.5,0.4
	c-10.9-1.3-12.3-16.8-6-16.3C331,43.1,331.6,53.5,331,58.5z"/>
</svg>
